<?xml version="1.0" encoding="utf-8"?>
<!-- Generator: Adobe Illustrator 25.2.1, SVG Export Plug-In . SVG Version: 6.00 Build 0)  -->
<svg version="1.1" id="Layer_1" xmlns="http://www.w3.org/2000/svg" xmlns:xlink="http://www.w3.org/1999/xlink" x="0px" y="0px"
	 viewBox="0 0 32 44" style="enable-background:new 0 0 32 44;" xml:space="preserve">
<style type="text/css">
	.st0{fill-rule:evenodd;clip-rule:evenodd;fill:#FF5500;}
</style>
<path class="st0" d="M18.1,8c2.2,0,4-1.8,4-4c0-2.2-1.8-4-4-4c-2.2,0-4,1.8-4,4C14,6.3,15.9,8,18.1,8z M12.5,11c0.1-1,1-1.6,1.5-1.5
	l4.2,1.1c0.1,0,0.2,0.1,0.3,0.2c0.1,0.1,0.2,0.1,0.3,0.2l5.3,3.9l4.2-2l0-2c0-0.5-0.1-0.9-0.2-1.4l0,0c0-0.2-0.1-0.5-0.1-0.7
	c-0.1-0.5,0.2-0.9,0.7-1c0.5-0.1,0.9,0.2,1,0.7v0.3c0,0.2-0.1,0.4-0.1,0.6l0,0c-0.1,0.5-0.2,1-0.2,1.5l0,1.5
	c0.7-0.2,1.4-0.2,1.8,0.6c0.4,0.8-0.7,1.8-1.8,2.5l-0.1,0.1l-0.1,1.6L29,25.7l-0.2,8.4l-0.1,8.4c0,0.1-0.1,0.3-0.3,0.3
	s-0.3-0.1-0.3-0.3l0.1-8.4l0.1-8.4l0-8.4v-1.1l-1.7,1l-2.3,1.4c-0.3,0.1-0.7,0.1-1,0.1c-0.3-0.1-0.7-0.2-1-0.4l-4.1-3L16.1,24
	l5.4,5.4c0.3,0.4,0.5,1,0.6,1.5c0.1,0.5,0,1.1-0.1,1.6c-0.2,1.1-1.6,8.4-1.6,8.4c-0.1,0.6-0.6,2.9-1.7,2.8c-1.2-0.1-1.3-1.2-1.2-3.1
	l0.8-7.7l-7.1-6c-0.1-0.1-0.1-0.2-0.2-0.3c-0.6-0.6-1.1-1.3-1.4-2.2c-0.3-1.1-0.3-2.2,0.1-3.2L12.5,11z M8.3,31.2l0.6-4.9
	c0.1,1.7,4.3,4.3,4.4,4.2l-0.8,2.2c-0.2,0.7-0.5,1.3-0.9,1.9c-0.3,0.6-0.8,1.3-1.4,2.2c-0.6,0.9-1.3,2-2.1,3.3
	c-1.4,2.2-2.8,3.4-3.8,2.9c-0.7-0.4-0.2-1.8,0.8-3.7c0.9-1.8,2.1-4.4,2.7-5.9C8,32.7,8.2,32,8.3,31.2z M8.1,19.9
	c0.4-1.2,2.9-9,2.9-9c1-3.3-4-2.6-5.9-0.6c-2.1,2.1-3.7,4.7-4.5,7.6c-0.3,2.2,1.7,4.4,5.9,3.6c0.3-0.1,0.9-0.4,1.1-0.7
	C7.7,20.6,7.9,20.2,8.1,19.9z"/>
</svg>
